<?xml version="1.0" encoding="utf-8"?>
<!-- Generator: Adobe Illustrator 24.0.0, SVG Export Plug-In . SVG Version: 6.00 Build 0)  -->
<svg version="1.1" id="图层_1" xmlns="http://www.w3.org/2000/svg" xmlns:xlink="http://www.w3.org/1999/xlink" x="0px" y="0px"
	 viewBox="0 0 40 40" style="enable-background:new 0 0 40 40;" xml:space="preserve">
<style type="text/css">
	.st0{fill:#231815;}
</style>
<title>扩展插件配图设计</title>
<g>
	<path class="st0" d="M34,16.27h-1.2c-0.99,0-1.93,0.38-2.59,1.04c-0.66,0.66-1.04,1.6-1.04,2.59c0,2.03,1.59,3.63,3.62,3.63H34
		c0.99,0,1.93-0.38,2.59-1.04c0.66-0.66,1.04-1.6,1.04-2.59C37.62,17.94,35.96,16.27,34,16.27z M35.61,21.51
		c-0.41,0.41-0.99,0.66-1.51,0.66h-1.4c-1.24,0-2.17-0.93-2.17-2.17c0-0.52,0.25-1.1,0.66-1.51c0.41-0.41,0.99-0.66,1.51-0.66h1.4
		c1.24,0,2.18,0.94,2.18,2.17C36.28,20.52,36.02,21.1,35.61,21.51z"/>
	<path class="st0" d="M26.42,21.9v-5.53h-1.55v5.92c0,0.77,0.65,1.42,1.42,1.42h2.09l0.6-1.55H26.7
		C26.57,22.17,26.42,22.03,26.42,21.9z"/>
	<path class="st0" d="M21.83,21.9v-5.53h-1.55v5.92c0,0.77,0.65,1.42,1.42,1.42h2.09l0.6-1.55H22.1
		C21.97,22.17,21.83,22.03,21.83,21.9z"/>
	<path class="st0" d="M12.68,20.72h5.01l0.6-1.55h-5.61c0.33-0.86,1.14-1.45,2.03-1.45h4.09l0.6-1.55H14.7
		c-0.61,0-1.24,0.2-1.66,0.52c-1.05,0.63-1.76,1.88-1.76,3.11c0,2.03,1.59,3.62,3.62,3.62h4.19l0.6-1.55H14.7
		C14.1,21.88,13.07,21.72,12.68,20.72z"/>
	<polygon class="st0" points="2.32,17.83 6.06,17.83 5.27,18.96 5.27,23.62 6.73,23.62 6.73,19.04 7.57,17.83 10.49,17.83 
		11.08,16.27 2.91,16.27 	"/>
</g>
</svg>
